[img]http://img839.imageshack.us/img839/6321/posterhgg.jpg[/img]
[CODE]
Big Mommas Like Father Like Son 2011 R5 LiNE XVID - IMAGiNE 

Ripper ...........: IMAGiNE                                        IMDB Rating.......:2.7/10                   
Video Codec.......: XVID                                         Release Date......:12/09/10
Audio Codec.......:MP3                                           Theatre Date......:10/09/10
Audio Bitrate.....:128                                              Runtime.......:1h 42mn
Subtitles.........:NIL                                                 Language..........:ENGLISH
Resolution...... 720 x 304                                      IMDb URL.......... http://www.imdb.com/title/tt1464174/


DETAILS:

Video
ID                               : 0
Format                           : MPEG-4 Visual
Format profile                   : Advanced Simple@L5
Format settings, BVOP            : 2
Format settings, QPel            : No
Format settings, GMC             : No warppoints
Format settings, Matrix          : Default (MPEG)
Muxing mode                      : Packed bitstream
Codec ID                         : XVID
Codec ID/Hint                    : XviD
Duration                         : 1h 42mn
Bit rate                         : 1 772 Kbps
Width                            : 720 pixels
Height                           : 304 pixels
Display aspect ratio             : 2.35:1
Frame rate                       : 25.000 fps
Color space                      : YUV
Chroma subsampling               : 4:2:0
Bit depth                        : 8 bits
Scan type                        : Progressive
Compression mode                 : Lossy
Bits/(Pixel*Frame)               : 0.324
Stream size                      : 1.27 GiB (93%)
Writing library                  : XviD 61

Audio
ID                               : 1
Format                           : MPEG Audio
Format version                   : Version 1
Format profile                   : Layer 3
Codec ID                         : 55
Codec ID/Hint                    : MP3
Duration                         : 1h 42mn
Bit rate mode                    : Constant
Bit rate                         : 128 Kbps
Channel(s)                       : 2 channels
Sampling rate                    : 44.1 KHz
Compression mode                 : Lossy
Stream size                      : 94.2 MiB (7%)
Alignment                        : Split accross interleaves
Interleave, duration             : 40 ms 

SOURCES:
VIDEO: ELEKTRI4KA ...... Thanx matey
AUDIO: OWN ............. 

PLOT: FBI agent Malcolm Turner and his stepson Trent go undercover at an all-girls performing arts school after Trent witnesses a murder.

NOTES:

IMAGiNE bringing you another release..........
Big Mommas Like Father Like Son 2011 R5.......
Not much to say about this one.....
Source was very nice so we did the usual.... 
cropped resized and sharpened....
Audio is our own very nice line  
Enjoy
[/CODE]
Screens:
[img]http://img101.imageshack.us/img101/444/55910985.jpg[/img]
[img]http://img846.imageshack.us/img846/2761/41128613.jpg[/img]